<svg xmlns="http://www.w3.org/2000/svg" viewBox="0 0 800 600" width="800" height="600">
  <!-- Background rectangle -->
  <rect width="800" height="600" fill="#ffffff" rx="10" ry="10" stroke="#e0e0e0" stroke-width="2"/>
  
  <!-- Header -->
  <rect x="0" y="0" width="800" height="60" fill="#0088cc" rx="10 10 0 0" ry="10 10 0 0"/>
  <text x="30" y="38" font-family="Arial" font-size="20" fill="#ffffff">Subscription SaaS Dashboard</text>
  
  <!-- Left sidebar -->
  <rect x="0" y="60" width="200" height="540" fill="#f8f9fa"/>
  
  <!-- Sidebar menu items -->
  <rect x="20" y="90" width="160" height="40" fill="#e4e8ef" rx="5" ry="5"/>
  <text x="50" y="115" font-family="Arial" font-size="14" fill="#333333">Dashboard</text>
  
  <rect x="20" y="140" width="160" height="40" fill="#f8f9fa" rx="5" ry="5"/>
  <text x="50" y="165" font-family="Arial" font-size="14" fill="#666666">Subscriptions</text>
  
  <rect x="20" y="190" width="160" height="40" fill="#f8f9fa" rx="5" ry="5"/>
  <text x="50" y="215" font-family="Arial" font-size="14" fill="#666666">Customers</text>
  
  <rect x="20" y="240" width="160" height="40" fill="#f8f9fa" rx="5" ry="5"/>
  <text x="50" y="265" font-family="Arial" font-size="14" fill="#666666">Products</text>
  
  <rect x="20" y="290" width="160" height="40" fill="#f8f9fa" rx="5" ry="5"/>
  <text x="50" y="315" font-family="Arial" font-size="14" fill="#666666">Analytics</text>
  
  <!-- Main content area -->
  <rect x="220" y="80" width="560" height="120" fill="#ffffff" rx="5" ry="5" stroke="#e0e0e0" stroke-width="1"/>
  <rect x="220" y="220" width="270" height="180" fill="#ffffff" rx="5" ry="5" stroke="#e0e0e0" stroke-width="1"/>
  <rect x="510" y="220" width="270" height="180" fill="#ffffff" rx="5" ry="5" stroke="#e0e0e0" stroke-width="1"/>
  <rect x="220" y="420" width="560" height="160" fill="#ffffff" rx="5" ry="5" stroke="#e0e0e0" stroke-width="1"/>
  
  <!-- Stats boxes in top area -->
  <rect x="240" y="100" width="120" height="80" fill="#f0f7fc" rx="5" ry="5"/>
  <text x="260" y="130" font-family="Arial" font-size="12" fill="#666666">Active</text>
  <text x="260" y="155" font-family="Arial" font-size="24" font-weight="bold" fill="#0088cc">128</text>
  
  <rect x="380" y="100" width="120" height="80" fill="#f0f7fc" rx="5" ry="5"/>
  <text x="400" y="130" font-family="Arial" font-size="12" fill="#666666">Revenue</text>
  <text x="400" y="155" font-family="Arial" font-size="24" font-weight="bold" fill="#0088cc">$9,580</text>
  
  <rect x="520" y="100" width="120" height="80" fill="#f0f7fc" rx="5" ry="5"/>
  <text x="540" y="130" font-family="Arial" font-size="12" fill="#666666">Growth</text>
  <text x="540" y="155" font-family="Arial" font-size="24" font-weight="bold" fill="#0088cc">+24%</text>
  
  <rect x="660" y="100" width="100" height="80" fill="#f0f7fc" rx="5" ry="5"/>
  <text x="680" y="130" font-family="Arial" font-size="12" fill="#666666">Churn</text>
  <text x="680" y="155" font-family="Arial" font-size="24" font-weight="bold" fill="#0088cc">3.2%</text>
  
  <!-- Chart in left middle box -->
  <text x="240" y="250" font-family="Arial" font-size="16" font-weight="bold" fill="#333333">Subscription Growth</text>
  
  <!-- Simple bar chart -->
  <rect x="240" y="270" width="30" height="60" fill="#0088cc" rx="3" ry="3"/>
  <rect x="280" y="270" width="30" height="90" fill="#0088cc" rx="3" ry="3"/>
  <rect x="320" y="270" width="30" height="70" fill="#0088cc" rx="3" ry="3"/>
  <rect x="360" y="270" width="30" height="110" fill="#0088cc" rx="3" ry="3"/>
  <rect x="400" y="270" width="30" height="130" fill="#0088cc" rx="3" ry="3"/>
  
  <!-- Pie chart in right middle box -->
  <text x="530" y="250" font-family="Arial" font-size="16" font-weight="bold" fill="#333333">Subscription Types</text>
  
  <!-- Simple pie chart -->
  <circle cx="640" cy="320" r="70" fill="transparent" stroke="#e0e0e0" stroke-width="1"/>
  <path d="M 640 320 L 640 250 A 70 70 0 0 1 704 345 Z" fill="#0088cc"/>
  <path d="M 640 320 L 704 345 A 70 70 0 0 1 610 389 Z" fill="#4CAF50"/>
  <path d="M 640 320 L 610 389 A 70 70 0 0 1 570 295 Z" fill="#FFC107"/>
  <path d="M 640 320 L 570 295 A 70 70 0 0 1 640 250 Z" fill="#9C27B0"/>
  
  <!-- Table in bottom area -->
  <text x="240" y="450" font-family="Arial" font-size="16" font-weight="bold" fill="#333333">Recent Subscriptions</text>
  
  <!-- Table headers -->
  <rect x="240" y="470" width="540" height="30" fill="#f0f7fc"/>
  <text x="260" y="490" font-family="Arial" font-size="12" fill="#666666">Customer</text>
  <text x="360" y="490" font-family="Arial" font-size="12" fill="#666666">Plan</text>
  <text x="460" y="490" font-family="Arial" font-size="12" fill="#666666">Start Date</text>
  <text x="560" y="490" font-family="Arial" font-size="12" fill="#666666">Amount</text>
  <text x="660" y="490" font-family="Arial" font-size="12" fill="#666666">Status</text>
  
  <!-- Table rows -->
  <text x="260" y="520" font-family="Arial" font-size="12" fill="#333333">Ahmed Ali</text>
  <text x="360" y="520" font-family="Arial" font-size="12" fill="#333333">Premium</text>
  <text x="460" y="520" font-family="Arial" font-size="12" fill="#333333">2023-06-15</text>
  <text x="560" y="520" font-family="Arial" font-size="12" fill="#333333">$49.99</text>
  <text x="660" y="520" font-family="Arial" font-size="12" fill="#4CAF50">Active</text>
  
  <text x="260" y="550" font-family="Arial" font-size="12" fill="#333333">Fatima Hassan</text>
  <text x="360" y="550" font-family="Arial" font-size="12" fill="#333333">Basic</text>
  <text x="460" y="550" font-family="Arial" font-size="12" fill="#333333">2023-06-12</text>
  <text x="560" y="550" font-family="Arial" font-size="12" fill="#333333">$29.99</text>
  <text x="660" y="550" font-family="Arial" font-size="12" fill="#4CAF50">Active</text>
  
  <line x1="240" y1="500" x2="780" y2="500" stroke="#e0e0e0" stroke-width="1"/>
  <line x1="240" y1="530" x2="780" y2="530" stroke="#e0e0e0" stroke-width="1"/>
</svg>
